M48
INCH,TZ
T1C0.0157
T2C0.0315
T3C0.0394
T4C0.0469
%
G90
G05
T1
X50500Y-30400
X52700Y-26450
X53200Y-38750
X53400Y-27600
X53900Y-36950
X53950Y-21250
X54100Y-24400
X56200Y-21700
X57300Y-36100
X58594Y-37278
X58650Y-17000
X59050Y-27500
X59200Y-29450
X59600Y-24150
X59850Y-23100
X60200Y-26750
X60224Y-17286
X60350Y-31550
X60550Y-24600
X61200Y-20150
X61450Y-26300
X61900Y-30450
X62100Y-21400
X62100Y-23150
X62500Y-25850
X62800Y-17586
X62800Y-20600
X63300Y-27200
X63400Y-18100
X63500Y-19600
X63600Y-31200
X64250Y-17700
X64550Y-21100
X65000Y-20050
X65750Y-23950
X68550Y-25500
X68550Y-26950
X68600Y-17000
X70800Y-15550
T2
X55204Y-21554
X55204Y-22554
X55204Y-23554
X55204Y-24554
X55204Y-25554
X55204Y-26554
X55204Y-27554
X55204Y-28554
X55204Y-29554
X55204Y-30554
X55204Y-31554
X55204Y-32554
X55204Y-33554
X55204Y-34554
X58204Y-21554
X58204Y-22554
X58204Y-23554
X58204Y-24554
X58204Y-25554
X58204Y-26554
X58204Y-27554
X58204Y-28554
X58204Y-29554
X58204Y-30554
X58204Y-31554
X58204Y-32554
X58204Y-33554
X58204Y-34554
T3
X61204Y-37848
X61204Y-38848
X61204Y-39848
X62204Y-37848
X62204Y-38848
X62204Y-39848
T4
X45850Y-17908
X46850Y-17908
T0
M30
